<?xml version="1.0" standalone="no"?>
<!DOCTYPE svg PUBLIC "-//W3C//DTD SVG 20010904//EN"
 "http://www.w3.org/TR/2001/REC-SVG-20010904/DTD/svg10.dtd">
<svg version="1.0" xmlns="http://www.w3.org/2000/svg"
 width="1024.000000pt" height="1024.000000pt" viewBox="0 0 1024.000000 1024.000000"
 preserveAspectRatio="xMidYMid meet">
<metadata>
Created by potrace 1.14, written by Peter Selinger 2001-2017
</metadata>
<g transform="translate(0.000000,1024.000000) scale(0.100000,-0.100000)"
fill="#000000" stroke="none">
<path d="M0 5120 l0 -5120 326 0 327 0 -50 52 c-147 157 -240 337 -283 549
-18 86 -27 189 -16 189 2 0 21 -7 42 -16 152 -64 411 112 734 496 213 255 498
661 658 937 281 486 532 1081 682 1623 24 85 48 160 54 166 6 7 65 24 131 39
155 35 485 126 600 164 73 25 91 28 97 16 29 -51 137 -183 208 -253 327 -325
756 -429 1285 -312 72 15 170 36 219 45 180 33 332 95 486 198 107 71 302 271
379 387 388 589 400 1379 28 1975 -150 241 -324 404 -552 518 -101 50 -255
102 -335 113 -31 4 -47 10 -39 14 8 4 82 17 164 29 425 60 811 80 1236 63 323
-13 594 -33 794 -58 112 -14 140 -14 210 -2 47 7 150 13 250 12 820 -4 1348
-421 1509 -1193 45 -213 51 -296 50 -641 -2 -362 -12 -455 -65 -616 -35 -104
-96 -216 -157 -284 -21 -25 -55 -76 -75 -115 -85 -169 -210 -334 -420 -553
-111 -116 -144 -158 -172 -216 -64 -133 -100 -337 -116 -666 -26 -531 47
-1831 144 -2565 l12 -90 948 -3 947 -2 0 5120 0 5120 -5120 0 -5120 0 0 -5120z
m3175 2545 c129 -64 308 -281 409 -495 93 -197 131 -356 124 -517 l-5 -103
-49 -43 c-118 -101 -269 -258 -329 -341 -80 -112 -183 -318 -225 -450 -17 -55
-40 -154 -52 -220 -18 -106 -19 -147 -14 -331 3 -115 8 -224 12 -242 l6 -32
-98 -30 c-55 -16 -149 -44 -211 -61 l-111 -31 -89 34 c-336 130 -634 344 -826
594 -188 245 -252 430 -278 806 -16 238 16 694 66 940 51 246 359 523 547 492
21 -4 53 -19 70 -33 48 -40 157 -279 237 -519 16 -51 51 -133 76 -183 114
-228 291 -710 361 -986 l28 -111 57 86 c31 47 90 125 132 172 l75 86 -39 174
c-174 768 -214 1150 -138 1306 28 59 58 74 139 70 49 -2 81 -10 125 -32z
m1732 -1307 l41 -13 -436 -1012 c-421 -976 -437 -1011 -455 -995 -23 21 -117
162 -145 218 l-21 40 378 876 c208 482 381 884 385 894 6 15 19 16 109 11 56
-3 121 -11 144 -19z m458 -280 c31 -35 81 -99 110 -143 52 -77 125 -218 125
-240 0 -6 -168 -400 -373 -875 l-374 -865 -84 3 c-100 3 -180 21 -290 63 -64
25 -79 34 -74 47 24 68 891 2072 897 2072 3 0 32 -28 63 -62z"/>
<path d="M8422 6438 c-28 -35 -87 -101 -130 -148 l-79 -84 -149 46 c-282 89
-562 151 -619 138 -121 -27 -155 -198 -54 -272 13 -9 98 -33 189 -52 165 -36
343 -84 475 -129 l70 -24 52 -234 c72 -319 95 -479 97 -669 1 -148 0 -157 -25
-210 -35 -73 -72 -112 -142 -154 -94 -56 -200 -80 -348 -81 -125 0 -125 0
-201 38 -87 43 -147 102 -194 193 -17 33 -45 69 -64 82 -42 28 -112 30 -157 2
-37 -22 -73 -86 -73 -127 1 -75 98 -235 194 -320 176 -154 391 -211 647 -169
198 33 343 97 456 200 57 52 133 150 145 188 3 7 17 2 39 -14 96 -72 213 -108
352 -108 l95 0 7 83 c3 45 5 113 3 151 l-3 70 -95 1 c-86 0 -100 3 -148 30
-109 60 -152 138 -194 359 -15 83 -40 212 -54 286 -14 74 -43 210 -63 302
l-38 167 50 48 c91 88 227 246 227 264 0 15 -195 209 -210 209 -4 0 -30 -28
-58 -62z"/>
</g>
</svg>
