<svg width="116" height="25" viewBox="0 0 116 25" fill="none" xmlns="http://www.w3.org/2000/svg">
<path fill-rule="evenodd" clip-rule="evenodd" d="M1.42965 5.32612V21.7479H16.6792V5.32612H1.42965ZM0.476549 3.99463C0.213358 3.99463 0 4.19334 0 4.43846V22.6355C0 22.8806 0.213359 23.0793 0.47655 23.0793H17.6323C17.8955 23.0793 18.1089 22.8806 18.1089 22.6355V4.43846C18.1089 4.19334 17.8955 3.99463 17.6323 3.99463H0.476549Z" fill="white"/>
<path fill-rule="evenodd" clip-rule="evenodd" d="M3.33582 19.5286V7.32324H8.16913V11.1139H9.93968V7.32324H14.773V19.5286H9.93968V15.4089H8.16913V19.5286H3.33582ZM6.9637 8.44078V12.2315H11.1451V8.44078H13.5676V18.411H11.1451V14.2913H6.9637V18.411H4.54125V8.44078H6.9637Z" fill="white"/>
<path fill-rule="evenodd" clip-rule="evenodd" d="M11.942 4.03905C11.9421 4.03199 11.9421 4.02493 11.9421 4.01786C11.9421 2.55966 10.6728 1.37755 9.10714 1.37755C7.54144 1.37755 6.27219 2.55966 6.27219 4.01786C6.27219 4.02493 6.27222 4.03199 6.27228 4.03905H4.79315C4.79311 4.03199 4.79309 4.02493 4.79309 4.01786C4.79309 1.79886 6.72456 0 9.10714 0C11.4897 0 13.4212 1.79886 13.4212 4.01786C13.4212 4.02493 13.4212 4.03199 13.4211 4.03905H11.942Z" fill="white"/>
<path d="M26.843 19.5895H29.8533V14.4466H35.0493V19.5895H38.0595V7.14307H35.0493V11.8752H29.8533V7.14307H26.843V19.5895Z" fill="white"/>
<path d="M40.467 9.57164H43.4198V7.14307H40.467V9.57164ZM40.4862 19.5895H43.3814V10.7859H40.4862V19.5895Z" fill="white"/>
<path d="M49.3194 18.0895C48.1306 17.9645 47.3828 17.8574 47.3828 17.3395C47.3828 17.2324 47.402 17.1431 47.4595 17.0359C47.9964 17.2324 48.5908 17.3216 49.2427 17.3216C51.6202 17.3216 53.2308 16.0359 53.2308 14.0716C53.2308 13.5181 53.0966 13.0359 52.8857 12.5895L54.3045 11.5359L52.7898 9.8395L51.2559 11.0538C50.6232 10.7502 49.8946 10.5895 49.1468 10.5895C46.9802 10.5895 45.1012 11.9288 45.1012 13.9824C45.1012 14.7502 45.3696 15.4466 45.8298 15.9824C45.3313 16.4466 45.0437 17.0181 45.0437 17.7681C45.0437 18.7502 45.5422 19.3574 46.2516 19.7324L44.8519 20.2145C44.7944 20.4288 44.7752 20.6431 44.7752 20.8038C44.7752 22.5181 46.6734 23.6074 49.4152 23.6074C52.0037 23.6074 53.9018 22.6431 53.9018 20.6431C53.9018 18.6788 52.0612 18.3931 49.3194 18.0895ZM49.1852 12.8216C49.9329 12.8216 50.3547 13.2859 50.3547 13.9824C50.3547 14.6431 50.0288 15.2145 49.1852 15.2145C48.3223 15.2145 47.9964 14.6431 47.9964 13.9824C47.9964 13.3038 48.4182 12.8216 49.1852 12.8216ZM49.5494 21.6609C48.3223 21.6609 47.6896 21.3395 47.6896 20.8931C47.6896 20.8574 47.6896 20.8038 47.7088 20.7681L48.2456 20.2681C48.4374 20.3038 48.6291 20.3216 48.8017 20.3395C49.8562 20.4466 51.0258 20.4824 51.0258 21.0716C51.0258 21.3752 50.6999 21.6609 49.5494 21.6609Z" fill="white"/>
<path d="M59.2956 18.0895C58.1069 17.9645 57.3591 17.8574 57.3591 17.3395C57.3591 17.2324 57.3783 17.1431 57.4358 17.0359C57.9726 17.2324 58.567 17.3216 59.2189 17.3216C61.5964 17.3216 63.207 16.0359 63.207 14.0716C63.207 13.5181 63.0728 13.0359 62.8619 12.5895L64.2807 11.5359L62.766 9.8395L61.2321 11.0538C60.5994 10.7502 59.8708 10.5895 59.1231 10.5895C56.9564 10.5895 55.0774 11.9288 55.0774 13.9824C55.0774 14.7502 55.3459 15.4466 55.806 15.9824C55.3075 16.4466 55.0199 17.0181 55.0199 17.7681C55.0199 18.7502 55.5184 19.3574 56.2278 19.7324L54.8282 20.2145C54.7706 20.4288 54.7515 20.6431 54.7515 20.8038C54.7515 22.5181 56.6497 23.6074 59.3915 23.6074C61.9799 23.6074 63.8781 22.6431 63.8781 20.6431C63.8781 18.6788 62.0374 18.3931 59.2956 18.0895ZM59.1614 12.8216C59.9092 12.8216 60.331 13.2859 60.331 13.9824C60.331 14.6431 60.005 15.2145 59.1614 15.2145C58.2986 15.2145 57.9726 14.6431 57.9726 13.9824C57.9726 13.3038 58.3944 12.8216 59.1614 12.8216ZM59.5257 21.6609C58.2986 21.6609 57.6659 21.3395 57.6659 20.8931C57.6659 20.8574 57.6659 20.8038 57.685 20.7681L58.2219 20.2681C58.4136 20.3038 58.6054 20.3216 58.7779 20.3395C59.8325 20.4466 61.0021 20.4824 61.0021 21.0716C61.0021 21.3752 60.6761 21.6609 59.5257 21.6609Z" fill="white"/>
<path d="M68.2844 19.7859C70.0484 19.7859 72.1383 18.8931 72.1383 16.6788C72.1383 13.3574 67.4983 14.2324 67.4983 13.0716C67.4983 12.7859 67.7667 12.5716 68.3036 12.5716C69.2431 12.5716 69.6266 13.2859 69.8566 13.6788L72.0808 12.5359C71.333 11.3752 70.0867 10.5895 68.3419 10.5895C66.6355 10.5895 64.7757 11.3574 64.7757 13.3395C64.7757 16.4466 69.3006 15.8395 69.3006 17.0538C69.3006 17.3216 69.0705 17.6431 68.2652 17.6431C66.9806 17.6431 66.7313 16.7681 66.5396 16.2859L64.258 17.2324C64.699 18.5181 66.1945 19.7859 68.2844 19.7859Z" fill="white"/>
<path d="M83.8843 7.14307L80.97 15.1074L78.1131 7.14307H73.8182V19.5895H76.8285V11.2145L79.5511 18.4645H82.4463L85.169 11.1788V19.5895H88.1792V7.14307H83.8843Z" fill="white"/>
<path d="M94.1838 10.5895C92.5349 10.5895 90.7901 11.0895 89.6014 12.2502L91.6913 13.8752C92.5349 13.1252 93.2635 12.9288 93.9729 12.9288C95.0275 12.9288 95.6027 13.3752 95.6027 14.0002V14.1431H92.9951C92.1514 14.1431 91.4037 14.2859 90.8093 14.5895C90.004 15.0002 89.5055 15.7324 89.5055 16.7502C89.5055 18.5538 91.0394 19.7859 93.1676 19.7859C93.8579 19.7859 94.8741 19.6609 95.641 18.7145L95.8328 19.5895H98.4787V14.0002C98.4787 11.9109 96.8681 10.5895 94.1838 10.5895ZM93.6278 17.6252C92.8033 17.6252 92.4007 17.2502 92.4007 16.8038C92.4007 16.5895 92.4966 16.4109 92.6883 16.2859C92.8609 16.1788 93.1101 16.1252 93.4169 16.1252H95.6027C95.5452 17.0002 94.6632 17.6252 93.6278 17.6252Z" fill="white"/>
<path d="M105.418 10.5895C104.402 10.5895 103.482 11.1966 103.041 12.1252V10.7859H100.126V19.5895H103.022V15.5002C103.022 13.9466 103.693 13.2681 104.709 13.2681C105.169 13.2681 105.668 13.4288 105.936 13.5895L107.317 11.1609C106.645 10.7502 106.07 10.5895 105.418 10.5895Z" fill="white"/>
<path d="M114.588 12.8752V10.7859H112.172V7.50021L109.296 9.48235V10.7859H107.781V12.8752H109.296V16.7859C109.296 19.0359 110.887 19.7859 112.67 19.7859C113.341 19.7859 113.955 19.6966 114.568 19.5002L114.588 17.4109C114.166 17.5359 113.744 17.6074 113.361 17.6074C112.172 17.6074 112.172 16.8752 112.172 16.5359V12.8752H114.588Z" fill="white"/>
</svg>
